<?xml version="1.0" standalone="no"?><!DOCTYPE svg PUBLIC "-//W3C//DTD SVG 1.1//EN" "http://www.w3.org/Graphics/SVG/1.1/DTD/svg11.dtd"><svg t="1545277328973" class="icon" style="" viewBox="0 0 1024 1024" version="1.1" xmlns="http://www.w3.org/2000/svg" p-id="7396" xmlns:xlink="http://www.w3.org/1999/xlink" width="16" height="16"><defs><style type="text/css"></style></defs><path d="M896 128a32 32 0 0 0-32-32H160a32 32 0 0 0-32 32v768a32 32 0 0 0 32 32h499.008l236.992-239.552V128zM160 32h704A96 96 0 0 1 960 128v573.632a32 32 0 0 1-9.28 22.464l-255.616 258.432a32 32 0 0 1-22.72 9.472H160A96 96 0 0 1 64 896V128A96 96 0 0 1 160 32z m544 704v146.752l146.752-146.752H704z m-32-64h256a32 32 0 0 1 22.656 54.656l-256 256A32 32 0 0 1 640 960v-256a32 32 0 0 1 32-32zM320 360a32 32 0 0 1 0-64h384a32 32 0 1 1 0 64h-384zM320 576a32 32 0 0 1 0-64h384a32 32 0 1 1 0 64h-384z" fill="#555555" p-id="7397"></path></svg>