<?xml version="1.0" standalone="no"?><!DOCTYPE svg PUBLIC "-//W3C//DTD SVG 1.1//EN" "http://www.w3.org/Graphics/SVG/1.1/DTD/svg11.dtd"><svg t="1545277355743" class="icon" style="" viewBox="0 0 1280 1024" version="1.1" xmlns="http://www.w3.org/2000/svg" p-id="7732" xmlns:xlink="http://www.w3.org/1999/xlink" width="20" height="16"><defs><style type="text/css"></style></defs><path d="M259.84 552.96a32 32 0 0 1-46.912 43.52L40.512 410.752a32 32 0 0 1 14.784-52.544l1152-324.928a32 32 0 0 1 35.648 48.064l-576 896a32 32 0 0 1-49.984 4.864l-134.144-139.52-143.04 140.224A32 32 0 0 1 285.44 960v-299.52a32 32 0 0 1 14.464-26.752l473.792-311.04a32 32 0 1 1 35.136 53.44L349.376 677.76v206.08l111.744-109.504a32 32 0 0 1 45.44 0.64l128.448 133.632L1143.424 117.76 123.072 405.504 259.84 553.024z" fill="#4B5AFE" p-id="7733"></path></svg>