<?xml version="1.0" standalone="no"?><!DOCTYPE svg PUBLIC "-//W3C//DTD SVG 1.1//EN" "http://www.w3.org/Graphics/SVG/1.1/DTD/svg11.dtd"><svg t="1545277325374" class="icon" style="" viewBox="0 0 1365 1024" version="1.1" xmlns="http://www.w3.org/2000/svg" p-id="7282" xmlns:xlink="http://www.w3.org/1999/xlink" width="21.328125" height="16"><defs><style type="text/css"></style></defs><path d="M136.533333 128a34.133333 34.133333 0 0 0-34.133333 34.133333v750.933334a34.133333 34.133333 0 0 0 34.133333 34.133333h766.088534a34.133333 34.133333 0 0 0 34.133333-34.133333v-228.5568a34.133333 34.133333 0 0 1 53.384533-28.194134l219.409067 149.845334a34.133333 34.133333 0 0 0 53.384533-28.194134V300.919467a34.133333 34.133333 0 0 0-52.906666-28.535467l-220.3648 145.2032a34.133333 34.133333 0 0 1-52.906667-28.535467V162.133333a34.133333 34.133333 0 0 0-34.133333-34.133333H136.533333z m868.488534 621.1584v163.908267a102.4 102.4 0 0 1-102.4 102.4H136.533333a102.4 102.4 0 0 1-102.4-102.4v-750.933334A102.4 102.4 0 0 1 136.533333 59.733333h766.088534a102.4 102.4 0 0 1 102.4 102.4v163.566934l167.458133-110.318934A102.4 102.4 0 0 1 1331.2 300.919467v477.047466a102.4 102.4 0 0 1-160.1536 84.5824l-166.024533-113.390933zM307.2 341.333333a34.133333 34.133333 0 0 1 0-68.266666h273.066667a34.133333 34.133333 0 0 1 0 68.266666h-273.066667z" fill="#555555" p-id="7283"></path></svg>