<?xml version="1.0" standalone="no"?><!DOCTYPE svg PUBLIC "-//W3C//DTD SVG 1.1//EN" "http://www.w3.org/Graphics/SVG/1.1/DTD/svg11.dtd"><svg t="1539944109756" class="icon" style="" viewBox="0 0 1024 1024" version="1.1" xmlns="http://www.w3.org/2000/svg" p-id="1497" xmlns:xlink="http://www.w3.org/1999/xlink" width="32" height="32"><defs><style type="text/css"></style></defs><path d="M512 337.498353V193.114353c0-5.360941 1.385412-9.999059 3.282824-12.649412 0.301176-0.451765-0.843294 0.240941-3.282824 0.240941-2.017882 0-3.162353-0.481882-3.312941-0.391529 1.957647 2.921412 3.312941 7.499294 3.312941 12.8v144.384z m0 493.387294a22.859294 22.859294 0 0 1-3.282824 12.649412c-0.301176 0.451765 0.843294-0.240941 3.282824-0.240941 2.409412 0 3.614118 0.692706 3.282824 0.240941a22.859294 22.859294 0 0 1-3.282824-12.649412v-144.384 144.384zM481.882353 481.882353V193.114353C481.882353 169.622588 495.375059 150.588235 512 150.588235s30.117647 19.034353 30.117647 42.526118V481.882353h301.176471a30.117647 30.117647 0 0 1 0 60.235294H542.117647v288.768c0 23.491765-13.492706 42.526118-30.117647 42.526118s-30.117647-19.034353-30.117647-42.526118V542.117647H180.705882a30.117647 30.117647 0 0 1 0-60.235294h301.176471z" p-id="1498" fill="#888888"></path></svg>