<?xml version="1.0" standalone="no"?><!DOCTYPE svg PUBLIC "-//W3C//DTD SVG 1.1//EN" "http://www.w3.org/Graphics/SVG/1.1/DTD/svg11.dtd"><svg t="1545892506194" class="icon" style="" viewBox="0 0 1024 1024" version="1.1" xmlns="http://www.w3.org/2000/svg" p-id="7173" xmlns:xlink="http://www.w3.org/1999/xlink" width="32" height="32"><defs><style type="text/css"></style></defs><path d="M486.4 486.4V307.2a25.6 25.6 0 0 1 51.2 0v179.2H716.8a25.6 25.6 0 1 1 0 51.2h-179.2V716.8a25.6 25.6 0 1 1-51.2 0v-179.2H307.2a25.6 25.6 0 1 1 0-51.2h179.2z m25.6 512a486.4 486.4 0 1 1 0-972.8 486.4 486.4 0 0 1 0 972.8z m0-51.2a435.2 435.2 0 1 0 0-870.4 435.2 435.2 0 0 0 0 870.4z" fill="#4B5AFE" p-id="7174"></path></svg>