<?xml version="1.0" encoding="UTF-8"?>
<svg width="22px" height="17px" viewBox="0 0 22 17" version="1.1" xmlns="http://www.w3.org/2000/svg" xmlns:xlink="http://www.w3.org/1999/xlink">
    <!-- Generator: Sketch 51.2 (57519) - http://www.bohemiancoding.com/sketch -->
    <title>直播</title>
    <desc>Created with Sketch.</desc>
    <defs></defs>
    <g id="M02_自动化推广" stroke="none" stroke-width="1" fill="none" fill-rule="evenodd">
        <g id="M02_活动管理_活动列表_活动详情_自动化邀约_修改时间" transform="translate(-409.000000, -1047.000000)" fill="#FFFFFF" fill-rule="nonzero">
            <g id="内容" transform="translate(399.000000, 211.000000)">
                <g id="直播阶段" transform="translate(0.000000, 825.000000)">
                    <g id="直播">
                        <g id="开播" transform="translate(10.000000, 10.000000)">
                            <g id="icon_开播" transform="translate(0.000000, 1.375000)">
                                <path d="M2,1.5 C1.72385763,1.5 1.5,1.72385763 1.5,2 L1.5,14.4444444 C1.5,14.7205868 1.72385763,14.9444444 2,14.9444444 L14.691358,14.9444444 C14.9675004,14.9444444 15.191358,14.7205868 15.191358,14.4444444 L15.191358,10.6134666 C15.191358,10.2116025 15.6414281,9.97393415 15.9733059,10.2005436 L19.7180521,12.7574935 C19.8011344,12.8142229 19.8993974,12.8445706 20,12.8445706 C20.2761424,12.8445706 20.5,12.6207129 20.5,12.3445706 L20.5,4.16353953 C20.5,4.06574976 20.4713242,3.97010652 20.4175219,3.88844778 C20.2655929,3.65785681 19.9554992,3.59408866 19.7249083,3.74601763 L15.9664498,6.22234503 C15.6340009,6.44138491 15.191358,6.20294465 15.191358,5.80482313 L15.191358,2 C15.191358,1.72385763 14.9675004,1.5 14.691358,1.5 L2,1.5 Z M16.191358,14.4444444 C16.191358,15.2728716 15.5197851,15.9444444 14.691358,15.9444444 L2,15.9444444 C1.17157288,15.9444444 0.5,15.2728716 0.5,14.4444444 L0.5,2 C0.5,1.17157288 1.17157288,0.5 2,0.5 L14.691358,0.5 C15.5197851,0.5 16.191358,1.17157288 16.191358,2 L16.191358,4.87661822 L19.1747248,2.91097385 C19.8664977,2.45518692 20.7967788,2.64649137 21.2525657,3.33826429 C21.4139726,3.58324051 21.5,3.87017022 21.5,4.16353953 L21.5,12.3445706 C21.5,13.1729977 20.8284271,13.8445706 20,13.8445706 C19.6981921,13.8445706 19.4034031,13.7535277 19.1541563,13.5833395 L16.191358,11.5603114 L16.191358,14.4444444 Z M4.88888889,4.97222222 C4.61274651,4.97222222 4.38888889,4.7483646 4.38888889,4.47222222 C4.38888889,4.19607985 4.61274651,3.97222222 4.88888889,3.97222222 L9.33333333,3.97222222 C9.60947571,3.97222222 9.83333333,4.19607985 9.83333333,4.47222222 C9.83333333,4.7483646 9.60947571,4.97222222 9.33333333,4.97222222 L4.88888889,4.97222222 Z" id="直播"></path>
                            </g>
                        </g>
                    </g>
                </g>
            </g>
        </g>
    </g>
</svg>
