<?xml version="1.0" encoding="UTF-8"?>
<svg width="20px" height="17px" viewBox="0 0 20 17" version="1.1" xmlns="http://www.w3.org/2000/svg" xmlns:xlink="http://www.w3.org/1999/xlink">
    <!-- Generator: Sketch 51.2 (57519) - http://www.bohemiancoding.com/sketch -->
    <title>预约</title>
    <desc>Created with Sketch.</desc>
    <defs></defs>
    <g id="M02_自动化推广" stroke="none" stroke-width="1" fill="none" fill-rule="evenodd">
        <g id="M02_活动管理_活动列表_活动详情_自动化通知_修改时间" transform="translate(-409.000000, -223.000000)" fill="#FFFFFF" fill-rule="nonzero">
            <g id="内容" transform="translate(399.000000, 211.000000)">
                <g id="Group">
                    <g id="直播">
                        <g id="开播" transform="translate(10.000000, 12.000000)">
                            <path d="M2,3.26470588 C1.72385763,3.26470588 1.5,3.48856351 1.5,3.76470588 L1.5,15 C1.5,15.2761424 1.72385763,15.5 2,15.5 L18,15.5 C18.2761424,15.5 18.5,15.2761424 18.5,15 L18.5,3.76470588 C18.5,3.48856351 18.2761424,3.26470588 18,3.26470588 L2,3.26470588 Z M2,2.26470588 L18,2.26470588 C18.8284271,2.26470588 19.5,2.93627876 19.5,3.76470588 L19.5,15 C19.5,15.8284271 18.8284271,16.5 18,16.5 L2,16.5 C1.17157288,16.5 0.5,15.8284271 0.5,15 L0.5,3.76470588 C0.5,2.93627876 1.17157288,2.26470588 2,2.26470588 Z M9.04852543,10.5325888 L12.9376127,6.64350146 C13.1328749,6.44823931 13.4494574,6.44823931 13.6447195,6.64350146 C13.8399817,6.8387636 13.8399817,7.15534609 13.6447195,7.35060824 L9.40207882,11.5932489 C9.20681668,11.7885111 8.89023419,11.7885111 8.69497204,11.5932489 L6.35528049,9.25355737 C6.16001834,9.05829522 6.16001834,8.74171273 6.35528049,8.54645059 C6.55054263,8.35118844 6.86712512,8.35118844 7.06238727,8.54645059 L9.04852543,10.5325888 Z M5,1.44117647 C5,1.1650341 5.22385763,0.941176471 5.5,0.941176471 C5.77614237,0.941176471 6,1.1650341 6,1.44117647 L6,4.08823529 C6,4.36437767 5.77614237,4.58823529 5.5,4.58823529 C5.22385763,4.58823529 5,4.36437767 5,4.08823529 L5,1.44117647 Z M14,1.44117647 C14,1.1650341 14.2238576,0.941176471 14.5,0.941176471 C14.7761424,0.941176471 15,1.1650341 15,1.44117647 L15,4.08823529 C15,4.36437767 14.7761424,4.58823529 14.5,4.58823529 C14.2238576,4.58823529 14,4.36437767 14,4.08823529 L14,1.44117647 Z" id="预约"></path>
                        </g>
                    </g>
                </g>
            </g>
        </g>
    </g>
</svg>