<?xml version="1.0" encoding="UTF-8"?>
<svg width="20px" height="17px" viewBox="0 0 20 17" version="1.1" xmlns="http://www.w3.org/2000/svg" xmlns:xlink="http://www.w3.org/1999/xlink">
    <!-- Generator: Sketch 51.2 (57519) - http://www.bohemiancoding.com/sketch -->
    <title>回放</title>
    <desc>Created with Sketch.</desc>
    <defs></defs>
    <g id="M02_自动化推广" stroke="none" stroke-width="1" fill="none" fill-rule="evenodd">
        <g id="M02_活动管理_活动列表_活动详情_自动化通知_修改时间" transform="translate(-409.000000, -1364.000000)" fill="#FFFFFF" fill-rule="nonzero">
            <g id="内容" transform="translate(399.000000, 211.000000)">
                <g id="回放阶段" transform="translate(0.000000, 1142.000000)">
                    <g id="Group-4">
                        <g id="开播" transform="translate(11.000000, 12.000000)">
                            <g id="icon_开播">
                                <path d="M1,0.5 C0.723857625,0.5 0.5,0.723857625 0.5,1 L0.5,14 C0.5,14.2761424 0.723857625,14.5 1,14.5 L17,14.5 C17.2761424,14.5 17.5,14.2761424 17.5,14 L17.5,1 C17.5,0.723857625 17.2761424,0.5 17,0.5 L1,0.5 Z M1,-0.5 L17,-0.5 C17.8284271,-0.5 18.5,0.171572875 18.5,1 L18.5,14 C18.5,14.8284271 17.8284271,15.5 17,15.5 L1,15.5 C0.171572875,15.5 -0.5,14.8284271 -0.5,14 L-0.5,1 C-0.5,0.171572875 0.171572875,-0.5 1,-0.5 Z M17.5,2.5 L17.5,1 C17.5,0.723857625 17.2761424,0.5 17,0.5 L1,0.5 C0.723857625,0.5 0.5,0.723857625 0.5,1 L0.5,2.5 L17.5,2.5 Z M1,-0.5 L17,-0.5 C17.8284271,-0.5 18.5,0.171572875 18.5,1 L18.5,3 C18.5,3.27614237 18.2761424,3.5 18,3.5 L-5.5067062e-14,3.5 C-0.276142375,3.5 -0.5,3.27614237 -0.5,3 L-0.5,1 C-0.5,0.171572875 0.171572875,-0.5 1,-0.5 Z M12.2572479,9.42874646 L7.25724788,12.4287465 C6.92398562,12.6287038 6.5,12.3886472 6.5,12 L6.5,6 C6.5,5.61135276 6.92398562,5.37129618 7.25724788,5.57125354 L12.2572479,8.57125354 C12.5809174,8.76545523 12.5809174,9.23454477 12.2572479,9.42874646 Z M7.5,6.88309519 L7.5,11.1169048 L11.0281747,9 L7.5,6.88309519 Z" id="回放"></path>
                            </g>
                        </g>
                    </g>
                </g>
            </g>
        </g>
    </g>
</svg>