<?xml version="1.0" standalone="no"?><!DOCTYPE svg PUBLIC "-//W3C//DTD SVG 1.1//EN" "http://www.w3.org/Graphics/SVG/1.1/DTD/svg11.dtd"><svg t="1546590278514" class="icon" style="" viewBox="0 0 1024 1024" version="1.1" xmlns="http://www.w3.org/2000/svg" p-id="6870" xmlns:xlink="http://www.w3.org/1999/xlink" width="200" height="200"><defs><style type="text/css"></style></defs><path d="M512 960A448 448 0 1 0 512 64a448 448 0 0 0 0 896z m0 64A512 512 0 1 1 512 0a512 512 0 0 1 0 1024z" fill="#4B5AFE" p-id="6871" data-spm-anchor-id="a313x.7781069.0.i0" class=""></path><path d="M335.552 389.76a38.464 38.464 0 0 1 54.336-54.272l298.688 298.688a38.464 38.464 0 0 1-54.4 54.336L335.616 389.76z" fill="#4B5AFE" p-id="6872"></path><path d="M688.512 389.76a38.464 38.464 0 0 0-54.4-54.272L335.616 634.176a38.464 38.464 0 0 0 54.336 54.336l298.624-298.688z" fill="#4B5AFE" p-id="6873"></path></svg>