<?xml version="1.0" encoding="UTF-8"?>
<svg width="16px" height="16px" viewBox="0 0 16 16" version="1.1" xmlns="http://www.w3.org/2000/svg" xmlns:xlink="http://www.w3.org/1999/xlink">
    <!-- Generator: Sketch 51.2 (57519) - http://www.bohemiancoding.com/sketch -->
    <title>关闭1</title>
    <desc>Created with Sketch.</desc>
    <defs></defs>
    <g id="M01_创建活动" stroke="none" stroke-width="1" fill="none" fill-rule="evenodd">
        <g id="M01_活动管理_新建活动_活动封面报错" transform="translate(-704.000000, -630.000000)" fill="#4B5AFE" fill-rule="nonzero">
            <g id="内容" transform="translate(320.000000, 120.000000)">
                <g id="直播标签" transform="translate(98.000000, 501.000000)">
                    <g id="添加标签-copy-2" transform="translate(223.000000, 0.000000)">
                        <g id="删除按钮-copy" transform="translate(64.000000, 10.000000)">
                            <path d="M7,6.15147186 L8.90906926,4.2424026 C9.14338384,4.00808802 9.52328283,4.00808802 9.7575974,4.2424026 C9.99191198,4.47671717 9.99191198,4.85661616 9.7575974,5.09093074 L7.84852814,7 L9.7575974,8.90906926 C9.99191198,9.14338384 9.99191198,9.52328283 9.7575974,9.7575974 C9.52328283,9.99191198 9.14338384,9.99191198 8.90906926,9.7575974 L7,7.84852814 L5.09093074,9.7575974 C4.85661616,9.99191198 4.47671717,9.99191198 4.2424026,9.7575974 C4.00808802,9.52328283 4.00808802,9.14338384 4.2424026,8.90906926 L6.15147186,7 L4.2424026,5.09093074 C4.00808802,4.85661616 4.00808802,4.47671717 4.2424026,4.2424026 C4.47671717,4.00808802 4.85661616,4.00808802 5.09093074,4.2424026 L7,6.15147186 Z M7,14.5 C2.85786438,14.5 -0.5,11.1421356 -0.5,7 C-0.5,2.85786438 2.85786438,-0.5 7,-0.5 C11.1421356,-0.5 14.5,2.85786438 14.5,7 C14.5,11.1421356 11.1421356,14.5 7,14.5 Z M7,13.5 C10.5898509,13.5 13.5,10.5898509 13.5,7 C13.5,3.41014913 10.5898509,0.5 7,0.5 C3.41014913,0.5 0.5,3.41014913 0.5,7 C0.5,10.5898509 3.41014913,13.5 7,13.5 Z" id="关闭1"></path>
                        </g>
                    </g>
                </g>
            </g>
        </g>
    </g>
</svg>