<?xml version="1.0" encoding="UTF-8"?>
<svg width="16px" height="16px" viewBox="0 0 16 16" version="1.1" xmlns="http://www.w3.org/2000/svg" xmlns:xlink="http://www.w3.org/1999/xlink">
    <!-- Generator: Sketch 51.2 (57519) - http://www.bohemiancoding.com/sketch -->
    <title>关闭</title>
    <desc>Created with Sketch.</desc>
    <defs></defs>
    <g id="M01_创建活动" stroke="none" stroke-width="1" fill="none" fill-rule="evenodd">
        <g id="M01_活动管理_新建活动_活动封面报错" transform="translate(-704.000000, -630.000000)" fill="#4B5AFE" fill-rule="nonzero">
            <g id="内容" transform="translate(320.000000, 120.000000)">
                <g id="直播标签" transform="translate(98.000000, 501.000000)">
                    <g id="添加标签-copy-2" transform="translate(223.000000, 0.000000)">
                        <g id="删除按钮-copy" transform="translate(63.000000, 9.000000)">
                            <path d="M8,7.15147186 L6.09093074,5.2424026 C5.85661616,5.00808802 5.47671717,5.00808802 5.2424026,5.2424026 C5.00808802,5.47671717 5.00808802,5.85661616 5.2424026,6.09093074 L7.15147186,8 L5.2424026,9.90906926 C5.00808802,10.1433838 5.00808802,10.5232828 5.2424026,10.7575974 C5.47671717,10.991912 5.85661616,10.991912 6.09093074,10.7575974 L8,8.84852814 L9.90906926,10.7575974 C10.1433838,10.991912 10.5232828,10.991912 10.7575974,10.7575974 C10.991912,10.5232828 10.991912,10.1433838 10.7575974,9.90906926 L8.84852814,8 L10.7575974,6.09093074 C10.991912,5.85661616 10.991912,5.47671717 10.7575974,5.2424026 C10.5232828,5.00808802 10.1433838,5.00808802 9.90906926,5.2424026 L8,7.15147186 Z M8,15.5 C3.85786438,15.5 0.5,12.1421356 0.5,8 C0.5,3.85786438 3.85786438,0.5 8,0.5 C12.1421356,0.5 15.5,3.85786438 15.5,8 C15.5,12.1421356 12.1421356,15.5 8,15.5 Z" id="关闭"></path>
                        </g>
                    </g>
                </g>
            </g>
        </g>
    </g>
</svg>