<?xml version="1.0" encoding="UTF-8"?>
<svg width="18px" height="18px" viewBox="0 0 18 18" version="1.1" xmlns="http://www.w3.org/2000/svg" xmlns:xlink="http://www.w3.org/1999/xlink">
    <!-- Generator: Sketch 51.2 (57519) - http://www.bohemiancoding.com/sketch -->
    <title>icon_定时</title>
    <desc>Created with Sketch.</desc>
    <defs></defs>
    <g id="M02_短信微信" stroke="none" stroke-width="1" fill="none" fill-rule="evenodd">
        <g id="时间_icon" fill="#975BD5" fill-rule="nonzero">
            <path d="M9,17.5 C4.30557963,17.5 0.5,13.6944204 0.5,9 C0.5,4.30557963 4.30557963,0.5 9,0.5 C13.6944204,0.5 17.5,4.30557963 17.5,9 C17.5,13.6944204 13.6944204,17.5 9,17.5 Z M9.24853516,9.30859375 L9.24853516,4.375 C9.24853516,3.96078644 8.91274872,3.625 8.49853516,3.625 C8.08432159,3.625 7.74853516,3.96078644 7.74853516,4.375 L7.74853516,10.0585938 C7.74853516,10.4728073 8.08432159,10.8085938 8.49853516,10.8085938 L14.1420898,10.8085938 C14.5563034,10.8085938 14.8920898,10.4728073 14.8920898,10.0585938 C14.8920898,9.64438019 14.5563034,9.30859375 14.1420898,9.30859375 L9.24853516,9.30859375 Z" id="icon_定时"></path>
        </g>
    </g>
</svg>