<?xml version="1.0" encoding="UTF-8"?>
<svg width="18px" height="18px" viewBox="0 0 18 18" version="1.1" xmlns="http://www.w3.org/2000/svg" xmlns:xlink="http://www.w3.org/1999/xlink">
    <!-- Generator: Sketch 51.2 (57519) - http://www.bohemiancoding.com/sketch -->
    <title>icon_已发送</title>
    <desc>Created with Sketch.</desc>
    <defs></defs>
    <g id="M02_短信微信" stroke="none" stroke-width="1" fill="none" fill-rule="evenodd">
        <g id="已发送_icon" transform="translate(1.000000, 1.000000)" fill="#4B5AFE" fill-rule="nonzero">
            <path d="M8,16.5 C3.30557963,16.5 -0.5,12.6944204 -0.5,8 C-0.5,3.30557963 3.30557963,-0.5 8,-0.5 C12.6944204,-0.5 16.5,3.30557963 16.5,8 C16.5,12.6944204 12.6944204,16.5 8,16.5 Z M7.05719096,9.69151234 L4.44482424,7.07914562 C4.15193102,6.7862524 3.67705729,6.7862524 3.38416407,7.07914562 C3.09127085,7.37203884 3.09127085,7.84691258 3.38416407,8.13980579 L6.52686087,11.2825026 C6.81975409,11.5753958 7.29462783,11.5753958 7.58752104,11.2825026 L12.6158359,6.25418771 C12.9087292,5.96129449 12.9087292,5.48642076 12.6158359,5.19352754 C12.3229427,4.90063432 11.848069,4.90063432 11.5551758,5.19352754 L7.05719096,9.69151234 Z" id="icon_已发送"></path>
        </g>
    </g>
</svg>