<?xml version="1.0" encoding="utf-8"?>
<!-- Generator: Adobe Illustrator 17.0.0, SVG Export Plug-In . SVG Version: 6.00 Build 0)  -->
<!DOCTYPE svg PUBLIC "-//W3C//DTD SVG 1.1//EN" "http://www.w3.org/Graphics/SVG/1.1/DTD/svg11.dtd">
<svg version="1.1" id="图层_1" xmlns="http://www.w3.org/2000/svg" xmlns:xlink="http://www.w3.org/1999/xlink" x="0px" y="0px"
	 width="32px" height="35px" viewBox="0 0 32 35" enable-background="new 0 0 32 35" xml:space="preserve">
<g id="M09_营销工具_商品推荐">
	<g id="Artboard" transform="translate(-1.000000, -1.000000)">
		<g id="Group-4" transform="translate(0.000000, 1.000000)">
			<polygon id="Path-2" opacity="0.8" fill="#FC5659" enable-background="new    " points="1,34.995 33,0 14,0 1,14 			"/>
			<path id="封面" fill="#FFFFFF" d="M3.173,16.476l1.223-1.181L3.541,14.41l0.518-0.5l0.854,0.885l1.208-1.167l0.479,0.496
				l-1.208,1.167l0.882,0.914l1.338-1.292L8.1,15.416l-3.244,3.133l-0.486-0.504l1.388-1.341l-0.882-0.914l-1.223,1.181
				L3.173,16.476z M6.026,19.532l1.273-1.23l-0.799-0.827l0.518-0.5l0.799,0.827L9.062,16.6l0.472,0.489L8.29,18.291l1.139,1.18
				c0.434-0.558,0.825-1.089,1.173-1.592l0.507,0.525c-0.769,1.104-1.695,2.304-2.786,3.594l-0.6-0.477
				c0.447-0.516,0.859-1.01,1.249-1.485l-1.202-1.244l-1.273,1.23L6.026,19.532z M6.789,13.915l1.971-1.903l-1.417-1.467
				l0.504-0.486l1.417,1.467l0.633-0.611l0.479,0.496l-0.633,0.611l3.737,3.87c0.458,0.475,0.436,0.955-0.068,1.442l-0.892,0.861
				l-0.601-0.392c0.302-0.263,0.596-0.52,0.855-0.77c0.288-0.278,0.314-0.539,0.077-0.784l-3.612-3.741l-1.971,1.903L6.789,13.915z
				 M8.687,14.585c0.81,0.191,1.64,0.474,2.496,0.843l-0.209,0.633c-0.891-0.39-1.735-0.674-2.545-0.865L8.687,14.585z M9.541,9.006
				l6.402-6.182l0.486,0.504l-2.885,2.786c0.248,0.372,0.453,0.772,0.623,1.178l2.762-2.667l4.738,4.906l-0.496,0.479l-0.347-0.36
				l-4.611,4.453l0.347,0.36l-0.496,0.479l-4.738-4.906l2.316-2.237c-0.177-0.413-0.375-0.806-0.623-1.178l-2.992,2.89L9.541,9.006z
				 M15.755,13.626l0.993-0.959l-3.48-3.604l-0.993,0.959L15.755,13.626z M17.229,12.202l1.64-1.584L17.98,9.698l-1.64,1.584
				L17.229,12.202z M19.351,10.153l1.014-0.979l-3.48-3.604l-1.014,0.979L19.351,10.153z M15.902,10.828l1.64-1.584l-0.847-0.878
				l-1.64,1.584L15.902,10.828z M14.61,9.49l1.64-1.584l-0.861-0.892l-1.64,1.584L14.61,9.49z"/>
		</g>
	</g>
</g>
</svg>
