<?xml version="1.0" standalone="no"?><!DOCTYPE svg PUBLIC "-//W3C//DTD SVG 1.1//EN" "http://www.w3.org/Graphics/SVG/1.1/DTD/svg11.dtd"><svg t="1545128940911" class="icon" style="" viewBox="0 0 1024 1024" version="1.1" xmlns="http://www.w3.org/2000/svg" p-id="6583" xmlns:xlink="http://www.w3.org/1999/xlink" width="32" height="32"><defs><style type="text/css"></style></defs><path d="M255.0784 691.6608L113.3568 549.888a25.6 25.6 0 0 1 0.2048-42.1376l141.824-141.824a25.6 25.6 0 0 1 36.2496 36.1984L190.4128 503.296H435.2a25.6 25.6 0 0 1 0 51.2H190.3616l100.9152 100.9664a25.6 25.6 0 1 1-36.1984 36.1984z m528.8448-36.1984l100.9152-100.9664H640a25.6 25.6 0 0 1 0-51.2h244.736l-101.1712-101.1712a25.6 25.6 0 0 1 36.1984-36.2496l141.8752 141.8752a25.6 25.6 0 0 1 0.2048 42.1376l-141.7216 141.7728a25.6 25.6 0 1 1-36.1984-36.1984z m-92.2624 164.6592l-141.7728 141.7216a25.6 25.6 0 0 1-42.1376-0.2048l-141.824-141.824a25.6 25.6 0 0 1 36.1984-36.2496l101.1712 101.2224V640a25.6 25.6 0 0 1 51.2 0v244.8384l100.9664-100.9152a25.6 25.6 0 0 1 36.1984 36.1984z m-36.1984-528.8448L554.496 190.3616V435.2a25.6 25.6 0 0 1-51.2 0V190.464L402.1248 291.584a25.6 25.6 0 0 1-36.2496-36.1984l141.8752-141.8752a25.6 25.6 0 0 1 42.1376-0.2048l141.7728 141.7216a25.6 25.6 0 1 1-36.1984 36.1984z" fill="#222222" p-id="6584"></path></svg>