<?xml version="1.0" standalone="no"?><!DOCTYPE svg PUBLIC "-//W3C//DTD SVG 1.1//EN" "http://www.w3.org/Graphics/SVG/1.1/DTD/svg11.dtd"><svg t="1536149379324" class="icon" style="" viewBox="0 0 1024 1024" version="1.1" xmlns="http://www.w3.org/2000/svg" p-id="804" xmlns:xlink="http://www.w3.org/1999/xlink" width="200" height="200"><defs><style type="text/css"></style></defs><path d="M490.666667 917.333333c-235.648 0-426.666667-191.018667-426.666667-426.666666s191.018667-426.666667 426.666667-426.666667 426.666667 191.018667 426.666666 426.666667-191.018667 426.666667-426.666666 426.666666z m0-42.666666a384 384 0 1 0 0-768 384 384 0 0 0 0 768z m5.376-584.192c38.229333 0 68.693333 10.154667 91.989333 31.658666 22.101333 20.309333 33.450667 48.384 33.450667 84.224a112.64 112.64 0 0 1-22.698667 69.888c-5.973333 7.168-22.101333 22.698667-48.384 45.994667-13.141333 11.349333-22.101333 22.101333-28.074667 32.853333a83.370667 83.370667 0 0 0-11.349333 43.605334v13.738666h-47.786667v-13.738666c0-19.712 3.584-37.034667 10.752-51.968 8.362667-17.92 28.074667-40.618667 60.330667-69.290667 9.557333-9.557333 16.725333-16.725333 20.309333-21.504 11.946667-14.933333 17.92-30.464 17.92-47.189333 0-23.893333-7.168-42.410667-20.309333-55.552-13.738667-14.336-33.450667-20.906667-58.538667-20.906667-29.866667 0-51.968 9.557333-66.304 29.269333-13.141333 16.725333-19.712 39.424-19.712 68.693334H360.448c0-41.813333 11.349333-75.264 35.242667-100.352 23.893333-26.282667 57.344-39.424 100.352-39.424z m-8.96 363.776c10.154667 0 19.114667 2.986667 26.282666 10.154666 6.570667 6.570667 10.154667 14.933333 10.154667 25.088a32.938667 32.938667 0 0 1-10.752 25.685334 36.608 36.608 0 0 1-25.685333 10.154666 36.608 36.608 0 0 1-25.685334-10.154666 34.218667 34.218667 0 0 1-10.154666-25.685334c0-10.154667 2.986667-18.517333 10.154666-25.088a34.218667 34.218667 0 0 1 25.685334-10.154666z" fill="#555555" p-id="805"></path></svg>