<?xml version="1.0" standalone="no"?><!DOCTYPE svg PUBLIC "-//W3C//DTD SVG 1.1//EN" "http://www.w3.org/Graphics/SVG/1.1/DTD/svg11.dtd"><svg t="1543827266861" class="icon" style="" viewBox="0 0 1024 1024" version="1.1" xmlns="http://www.w3.org/2000/svg" p-id="6208" xmlns:xlink="http://www.w3.org/1999/xlink" width="32" height="32"><defs><style type="text/css"></style></defs><path d="M375.466667 238.933333a34.133333 34.133333 0 0 1 0-68.266666h273.066666a34.133333 34.133333 0 0 1 0 68.266666h-273.066666zM204.8 341.333333a34.133333 34.133333 0 0 1 0-68.266666h614.4a34.133333 34.133333 0 0 1 0 68.266666H204.8z" fill="#222222" p-id="6209"></path><path d="M716.8 341.333333a34.133333 34.133333 0 0 1 68.266667 0v427.554134C785.066667 816.9472 741.853867 853.333333 691.2 853.333333H332.8C282.146133 853.333333 238.933333 816.9472 238.933333 768.887467V341.333333a34.133333 34.133333 0 0 1 68.266667 0v427.554134c0 7.509333 10.274133 16.1792 25.6 16.1792h358.4c15.325867 0 25.6-8.669867 25.6-16.1792V341.333333z" fill="#222222" p-id="6210"></path><path d="M443.733333 409.6a34.133333 34.133333 0 0 1 34.133334 34.133333v238.933334a34.133333 34.133333 0 0 1-68.266667 0v-238.933334a34.133333 34.133333 0 0 1 34.133333-34.133333zM580.266667 409.6a34.133333 34.133333 0 0 1 34.133333 34.133333v238.933334a34.133333 34.133333 0 0 1-68.266667 0v-238.933334a34.133333 34.133333 0 0 1 34.133334-34.133333z" fill="#222222" p-id="6211"></path></svg>