<?xml version="1.0" standalone="no"?><!DOCTYPE svg PUBLIC "-//W3C//DTD SVG 1.1//EN" "http://www.w3.org/Graphics/SVG/1.1/DTD/svg11.dtd"><svg t="1543827318731" class="icon" style="" viewBox="0 0 1024 1024" version="1.1" xmlns="http://www.w3.org/2000/svg" p-id="6334" xmlns:xlink="http://www.w3.org/1999/xlink" width="32" height="32"><defs><style type="text/css"></style></defs><path d="M785.066667 479.197867a34.133333 34.133333 0 0 1 68.266666 0V750.933333a102.4 102.4 0 0 1-102.4 102.4H307.2a102.4 102.4 0 0 1-102.4-102.4V307.2a102.4 102.4 0 0 1 102.4-102.4h275.968a34.133333 34.133333 0 0 1 0 68.266667H307.2a34.133333 34.133333 0 0 0-34.133333 34.133333v443.733333a34.133333 34.133333 0 0 0 34.133333 34.133334h443.733333a34.133333 34.133333 0 0 0 34.133334-34.133334v-271.735466z" fill="#222222" p-id="6335"></path><path d="M491.997867 566.852267l313.7536-313.7536-313.7536 313.7536z m-24.132267-24.1664l313.7536-313.7536a34.0992 34.0992 0 1 1 48.264533 48.264533l-313.7536 313.7536a34.0992 34.0992 0 1 1-48.264533-48.264533z" fill="#222222" p-id="6336"></path></svg>