<?xml version="1.0" standalone="no"?><!DOCTYPE svg PUBLIC "-//W3C//DTD SVG 1.1//EN" "http://www.w3.org/Graphics/SVG/1.1/DTD/svg11.dtd"><svg t="1539344238759" class="icon" style="" viewBox="0 0 1024 1024" version="1.1" xmlns="http://www.w3.org/2000/svg" p-id="833" xmlns:xlink="http://www.w3.org/1999/xlink" width="48" height="48"><defs><style type="text/css"></style></defs><path d="M693.063287 347.452363c11.739369 0 23.353894 0.862647 34.874275 2.143826-31.333636-145.899928-187.328479-254.30694-365.384781-254.30694-199.066825 0-362.134761 135.684262-362.134761 307.978327 0 99.453083 54.251601 181.122127 144.907321 244.463758l-36.219923 108.936061 126.59628-63.48387c45.299719 8.968256 81.639369 18.185174 126.849036 18.185174 11.361769 0 22.630417-0.560772 33.80492-1.438769-7.074116-24.211425-11.174504-49.568952-11.174504-75.879178C385.183198 475.845569 521.046538 347.452363 693.063287 347.452363L693.063287 347.452363zM498.35063 249.270227c27.267017 0 45.331441 17.938558 45.331441 45.189202 0 27.139104-18.063401 45.328371-45.331441 45.328371-27.142174 0-54.377468-18.188244-54.377468-45.328371C443.973162 267.206738 471.208457 249.270227 498.35063 249.270227L498.35063 249.270227zM244.908384 339.785753c-27.139104 0-54.531987-18.186198-54.531987-45.328371 0-27.250644 27.390837-45.188178 54.531987-45.188178 27.139104 0 45.203528 17.937534 45.203528 45.188178C290.111912 321.599556 272.048511 339.785753 244.908384 339.785753L244.908384 339.785753zM1023.580956 629.701702c0-144.778384-144.879692-262.793218-307.599703-262.793218-172.303274 0-308.004933 118.013811-308.004933 262.793218 0 145.026024 135.705752 262.790148 308.004933 262.790148 36.063357 0 72.435753-9.092076 108.656699-18.170848l99.329263 54.389748-27.232225-90.499154C969.421452 783.681656 1023.580956 711.369723 1023.580956 629.701702L1023.580956 629.701702zM616.116801 584.389704c-18.030655 0-36.219923-17.938558-36.219923-36.236296 0-18.044982 18.188244-36.213783 36.219923-36.213783 27.39186 0 45.330418 18.168802 45.330418 36.213783C661.447219 566.451146 643.508661 584.389704 616.116801 584.389704L616.116801 584.389704zM815.309492 584.389704c-17.907858 0-35.971259-17.938558-35.971259-36.236296 0-18.044982 18.063401-36.213783 35.971259-36.213783 27.140127 0 45.326325 18.168802 45.326325 36.213783C860.63684 566.451146 842.450642 584.389704 815.309492 584.389704L815.309492 584.389704z" p-id="834" fill="#07B906"></path></svg>